<svg xmlns="http://www.w3.org/2000/svg" viewBox="0 0 1024 1024">
  <defs>
    <radialGradient id="background" cx="38%" cy="28%" r="78%">
      <stop offset="0" stop-color="#1e293b"/>
      <stop offset="0.48" stop-color="#111827"/>
      <stop offset="1" stop-color="#020617"/>
    </radialGradient>
    <linearGradient id="set" x1="176" y1="218" x2="850" y2="804" gradientUnits="userSpaceOnUse">
      <stop offset="0" stop-color="#f8fafc"/>
      <stop offset="0.42" stop-color="#dbeafe"/>
      <stop offset="0.7" stop-color="#67e8f9"/>
      <stop offset="1" stop-color="#22d3ee"/>
    </linearGradient>
    <linearGradient id="rim" x1="190" y1="142" x2="846" y2="910" gradientUnits="userSpaceOnUse">
      <stop offset="0" stop-color="#f97316"/>
      <stop offset="0.38" stop-color="#eab308"/>
      <stop offset="0.68" stop-color="#14b8a6"/>
      <stop offset="1" stop-color="#38bdf8"/>
    </linearGradient>
    <filter id="shadow" x="-20%" y="-20%" width="140%" height="140%">
      <feDropShadow dx="0" dy="24" stdDeviation="38" flood-color="#000000" flood-opacity="0.45"/>
    </filter>
  </defs>
  <rect width="1024" height="1024" rx="224" fill="url(#background)"/>
  <circle cx="512" cy="512" r="404" fill="none" stroke="url(#rim)" stroke-width="18" opacity="0.85"/>
  <g filter="url(#shadow)">
    <path fill="url(#set)" d="M586 810c-60 0-111-25-153-74-35 30-76 45-123 45-59 0-108-20-145-60-37-39-56-89-56-149 0-54 17-101 51-140 34-40 78-64 132-72 4-48 24-88 60-121 36-34 79-51 129-51 48 0 90 16 126 48 35 31 56 71 63 118 69 10 125 42 168 95 42 53 64 115 64 188 0 50-13 94-38 132-26 38-59 60-99 67-39 7-75-3-108-31-29 3-60 5-91 5Zm-153-190c23 0 43 11 60 34 24 32 54 48 91 48 26 0 50-7 72-20-5-16-8-32-8-50 0-39 14-72 42-99 27-27 61-41 100-41 10 0 20 1 29 3-27-31-63-50-108-57-35-5-64-20-87-45-23-24-36-54-39-89-3-28-14-50-34-66-20-17-44-25-72-25-31 0-57 10-78 31-21 20-33 47-35 79-3 44-27 72-72 85-36 10-64 29-83 58-20 28-30 61-30 99 0 38 12 69 37 94 25 24 57 36 96 36 31 0 59-14 86-43 20-21 41-32 65-32Zm356-46c-16 0-30 6-41 17-12 11-18 25-18 41 0 17 6 31 18 42 11 12 25 18 41 18 17 0 31-6 42-18 12-11 18-25 18-42 0-16-6-30-18-41-11-11-25-17-42-17Z"/>
  </g>
  <path fill="none" stroke="#93c5fd" stroke-linecap="round" stroke-width="20" d="M196 524c86 30 166 33 240 8 56-19 108-18 158 4 61 27 128 22 200-16" opacity="0.38"/>
  <path fill="none" stroke="#facc15" stroke-linecap="round" stroke-width="12" d="M228 654c57-25 113-31 167-18 61 15 116 6 165-26 42-27 89-38 141-31" opacity="0.58"/>
</svg>
